<svg width="30" height="39" viewBox="0 0 30 39" fill="none" xmlns="http://www.w3.org/2000/svg">
<path d="M13 0C13 8.8 4.33333 12.3333 0 13C8.8 13 12.3333 21.6667 13 26C13 18 21.6667 14 26 13C17.2 13 13.6667 4.33333 13 0Z" fill="white"/>
<path d="M23.5 19C23.5 23.4 19.1667 25.1667 17 25.5C21.4 25.5 23.1667 29.8333 23.5 32C23.5 28 27.8333 26 30 25.5C25.6 25.5 23.8333 21.1667 23.5 19Z" fill="white"/>
<path d="M6.5 26C6.5 30.4 2.16667 32.1667 0 32.5C4.4 32.5 6.16667 36.8333 6.5 39C6.5 35 10.8333 33 13 32.5C8.6 32.5 6.83333 28.1667 6.5 26Z" fill="white"/>
</svg>
